<svg width="317" height="115" viewBox="0 0 317 115" fill="none" xmlns="http://www.w3.org/2000/svg">
<path d="M0 89.2537V7.33378H17.5052V75.6784H52.7491V89.2537H0Z" fill="#303030"/>
<path d="M60.4933 89.2537V30.2714H77.9985V89.2537H60.4933ZM69.2459 23.4837C66.1339 23.4837 63.6053 22.5865 61.6603 20.7921C59.7153 18.9976 58.7428 16.7351 58.7428 14.0044C58.7428 11.1957 59.7153 8.89416 61.6603 7.09973C63.6053 5.30529 66.1339 4.40807 69.2459 4.40807C72.4357 4.40807 75.0032 5.30529 76.9482 7.09973C78.971 8.89416 79.9824 11.1957 79.9824 14.0044C79.9824 16.7351 78.971 18.9976 76.9482 20.7921C75.0032 22.5865 72.4357 23.4837 69.2459 23.4837Z" fill="#303030"/>
<path d="M112.096 90.6581C106.572 90.6581 101.788 89.7999 97.742 88.0834C93.7742 86.289 90.6232 83.8704 88.2892 80.8277C86.033 77.7849 84.7492 74.3521 84.438 70.5292H101.827C102.138 71.8555 102.682 73.0648 103.46 74.1571C104.316 75.1713 105.444 75.9905 106.845 76.6147C108.323 77.1608 109.957 77.4339 111.746 77.4339C113.691 77.4339 115.247 77.1998 116.414 76.7317C117.659 76.1856 118.593 75.4834 119.215 74.6252C119.837 73.767 120.149 72.8697 120.149 71.9335C120.149 70.4512 119.682 69.3199 118.748 68.5397C117.892 67.7595 116.609 67.1353 114.897 66.6672C113.186 66.1211 111.124 65.614 108.712 65.1459C105.911 64.5217 103.11 63.8195 100.309 63.0393C97.5864 62.1811 95.1357 61.1279 92.9572 59.8796C90.8566 58.6313 89.145 57.0319 87.8224 55.0814C86.5776 53.0529 85.9552 50.5953 85.9552 47.7086C85.9552 44.1978 86.9277 41.038 88.8727 38.2293C90.8177 35.3426 93.6186 33.0801 97.2752 31.4417C100.932 29.7252 105.367 28.867 110.579 28.867C117.97 28.867 123.766 30.5054 127.968 33.7822C132.169 37.059 134.659 41.4671 135.437 47.0064H119.098C118.632 45.4461 117.659 44.2758 116.181 43.4956C114.703 42.6374 112.835 42.2083 110.579 42.2083C108.012 42.2083 106.067 42.6374 104.744 43.4956C103.421 44.3538 102.76 45.4851 102.76 46.8894C102.76 47.8256 103.188 48.6839 104.044 49.464C104.978 50.1662 106.3 50.7904 108.012 51.3365C109.723 51.8826 111.824 52.4288 114.314 52.9749C119.059 53.9891 123.144 55.0814 126.567 56.2517C130.068 57.422 132.791 59.1384 134.736 61.401C136.681 63.5855 137.615 66.7843 137.537 70.9973C137.615 74.8202 136.604 78.214 134.503 81.1788C132.48 84.1435 129.563 86.4841 125.75 88.2005C121.938 89.8389 117.387 90.6581 112.096 90.6581Z" fill="#303030"/>
<path d="M170.723 89.2537C166.444 89.2537 162.671 88.5906 159.403 87.2642C156.136 85.8599 153.607 83.5974 151.818 80.4766C150.028 77.3558 149.133 73.1038 149.133 67.7205V44.8999H139.097V30.2714H149.133L151.001 13.6533H166.639V30.2714H181.693V44.8999H166.639V67.9545C166.639 70.2951 167.144 71.9725 168.156 72.9868C169.245 73.923 171.073 74.3911 173.641 74.3911H181.693V89.2537H170.723Z" fill="#303030"/>
<path d="M191.766 89.2537V26.0583C191.766 20.9091 192.661 16.8131 194.45 13.7703C196.24 10.6496 198.729 8.42605 201.919 7.09973C205.187 5.69538 208.921 4.99321 213.122 4.99321H220.591V19.8558H215.923C213.511 19.8558 211.8 20.3239 210.788 21.2602C209.777 22.1964 209.271 23.7958 209.271 26.0583V89.2537H191.766ZM184.064 44.8999V30.2714H221.408V44.8999H184.064Z" fill="#303030"/>
<path d="M235.632 115L249.753 82.7001H246.252L222.561 30.2714H241.584L257.805 66.1991L271.343 30.2714H290.132L254.188 115H235.632Z" fill="#303030"/>
<path d="M302.529 16.384V5.64338H305.849C306.851 5.64338 307.664 5.75607 308.286 5.98146C308.909 6.20685 309.358 6.5536 309.635 7.02171C309.929 7.47249 310.076 8.05329 310.076 8.76413C310.076 9.42296 309.894 9.98643 309.531 10.4545C309.185 10.9227 308.684 11.3041 308.027 11.5988L311.061 16.384H308.597L306.134 12.171H304.682V16.384H302.529ZM304.682 10.5586H305.823C306.48 10.5586 306.981 10.4199 307.327 10.1425C307.69 9.86507 307.871 9.43163 307.871 8.84215C307.871 8.27001 307.69 7.87125 307.327 7.64586C306.981 7.42047 306.462 7.30778 305.771 7.30778H304.682V10.5586ZM305.978 22.1054C304.457 22.1054 303.03 21.8193 301.699 21.2472C300.368 20.675 299.192 19.8862 298.172 18.8806C297.169 17.8577 296.383 16.6787 295.812 15.3437C295.242 14.0087 294.956 12.5784 294.956 11.0527C294.956 9.50965 295.242 8.0793 295.812 6.76165C296.383 5.42666 297.169 4.25637 298.172 3.25079C299.192 2.22788 300.368 1.43035 301.699 0.85821C303.03 0.28607 304.457 0 305.978 0C307.517 0 308.943 0.28607 310.257 0.85821C311.589 1.43035 312.756 2.22788 313.758 3.25079C314.778 4.25637 315.574 5.42666 316.144 6.76165C316.715 8.0793 317 9.50965 317 11.0527C317 12.5784 316.715 14.0087 316.144 15.3437C315.574 16.6787 314.778 17.8577 313.758 18.8806C312.756 19.8862 311.589 20.675 310.257 21.2472C308.943 21.8193 307.517 22.1054 305.978 22.1054ZM305.978 20.1029C307.223 20.1029 308.39 19.8775 309.479 19.4267C310.586 18.9586 311.554 18.3085 312.384 17.4763C313.214 16.6441 313.853 15.6818 314.303 14.5896C314.77 13.4799 315.003 12.301 315.003 11.0527C315.003 9.80439 314.77 8.6341 314.303 7.54184C313.853 6.43223 313.214 5.46133 312.384 4.62913C311.554 3.79693 310.586 3.15544 309.479 2.70466C308.39 2.23655 307.223 2.00249 305.978 2.00249C304.733 2.00249 303.558 2.23655 302.451 2.70466C301.362 3.15544 300.402 3.79693 299.573 4.62913C298.743 5.46133 298.094 6.43223 297.628 7.54184C297.178 8.6341 296.953 9.80439 296.953 11.0527C296.953 12.301 297.178 13.4799 297.628 14.5896C298.094 15.6818 298.743 16.6441 299.573 17.4763C300.402 18.3085 301.362 18.9586 302.451 19.4267C303.558 19.8775 304.733 20.1029 305.978 20.1029Z" fill="#303030"/>
</svg>
