<svg width="314" height="332" viewBox="0 0 314 332" fill="none" xmlns="http://www.w3.org/2000/svg">
<path d="M20.3 315.7C16.9867 315.7 13.9067 314.907 11.06 313.32C8.26 311.687 6.02 309.4 4.34 306.46C2.66 303.473 1.82 299.927 1.82 295.82C1.82 291.713 2.66 288.19 4.34 285.25C6.02 282.263 8.26 279.977 11.06 278.39C13.9067 276.803 16.9867 276.01 20.3 276.01C23.66 276.01 26.4133 276.733 28.56 278.18C30.7067 279.58 32.2933 281.75 33.32 284.69C34.3467 287.583 34.86 291.293 34.86 295.82C34.86 300.393 34.37 304.15 33.39 307.09C32.4567 310.03 30.9167 312.2 28.77 313.6C26.67 315 23.8467 315.7 20.3 315.7ZM24.08 303.38C25.2467 303.38 26.2967 303.1 27.23 302.54C28.1633 301.98 28.91 301.14 29.47 300.02C30.03 298.853 30.31 297.453 30.31 295.82C30.31 294.14 30.03 292.763 29.47 291.69C28.91 290.57 28.1633 289.73 27.23 289.17C26.2967 288.61 25.2467 288.33 24.08 288.33C22.9133 288.33 21.8633 288.61 20.93 289.17C19.9967 289.73 19.25 290.57 18.69 291.69C18.13 292.763 17.85 294.14 17.85 295.82C17.85 297.453 18.13 298.853 18.69 300.02C19.25 301.14 19.9967 301.98 20.93 302.54C21.8633 303.1 22.9133 303.38 24.08 303.38ZM30.8 315V309.82L30.73 295.82L30.03 281.82V263.06H45.85V315H30.8ZM73.9955 315.7C69.3288 315.7 65.2455 314.837 61.7455 313.11C58.2921 311.383 55.6088 309.027 53.6955 306.04C51.7821 303.007 50.8255 299.6 50.8255 295.82C50.8255 291.947 51.7588 288.517 53.6255 285.53C55.5388 282.543 58.1288 280.21 61.3955 278.53C64.7088 276.85 68.4188 276.01 72.5255 276.01C76.3055 276.01 79.7821 276.757 82.9555 278.25C86.1755 279.743 88.7421 281.96 90.6555 284.9C92.6155 287.84 93.5955 291.48 93.5955 295.82C93.5955 296.38 93.5721 297.01 93.5255 297.71C93.4788 298.363 93.4321 298.97 93.3855 299.53H63.9155V291.9H84.9855L79.0355 293.93C79.0355 292.437 78.7555 291.177 78.1955 290.15C77.6821 289.077 76.9588 288.26 76.0255 287.7C75.0921 287.093 73.9721 286.79 72.6655 286.79C71.3588 286.79 70.2155 287.093 69.2355 287.7C68.3021 288.26 67.5788 289.077 67.0655 290.15C66.5521 291.177 66.2955 292.437 66.2955 293.93V296.31C66.2955 297.943 66.6221 299.343 67.2755 300.51C67.9288 301.677 68.8621 302.563 70.0755 303.17C71.2888 303.73 72.7588 304.01 74.4855 304.01C76.2588 304.01 77.7055 303.777 78.8255 303.31C79.9921 302.843 81.2055 302.143 82.4655 301.21L90.7255 309.54C88.8588 311.547 86.5488 313.087 83.7955 314.16C81.0888 315.187 77.8221 315.7 73.9955 315.7ZM108.754 315L93.3543 276.71H109.594L121.284 307.79H113.094L125.554 276.71H140.534L125.134 315H108.754ZM169.553 276.01C172.493 276.01 175.153 276.617 177.533 277.83C179.913 278.997 181.78 280.84 183.133 283.36C184.533 285.88 185.233 289.147 185.233 293.16V315H169.413V295.89C169.413 293.51 168.993 291.83 168.153 290.85C167.313 289.823 166.17 289.31 164.723 289.31C163.65 289.31 162.646 289.567 161.713 290.08C160.826 290.547 160.103 291.34 159.543 292.46C159.03 293.58 158.773 295.097 158.773 297.01V315H142.953V276.71H158.003V287.91L154.993 284.69C156.486 281.797 158.493 279.627 161.013 278.18C163.58 276.733 166.426 276.01 169.553 276.01ZM213.017 315.7C208.677 315.7 204.827 314.86 201.467 313.18C198.154 311.453 195.54 309.097 193.627 306.11C191.714 303.123 190.757 299.693 190.757 295.82C190.757 291.947 191.714 288.517 193.627 285.53C195.54 282.543 198.154 280.21 201.467 278.53C204.827 276.85 208.677 276.01 213.017 276.01C217.357 276.01 221.207 276.85 224.567 278.53C227.927 280.21 230.54 282.543 232.407 285.53C234.32 288.517 235.277 291.947 235.277 295.82C235.277 299.693 234.32 303.123 232.407 306.11C230.54 309.097 227.927 311.453 224.567 313.18C221.207 314.86 217.357 315.7 213.017 315.7ZM213.017 303.38C214.184 303.38 215.234 303.1 216.167 302.54C217.1 301.98 217.847 301.14 218.407 300.02C218.967 298.853 219.247 297.453 219.247 295.82C219.247 294.14 218.967 292.763 218.407 291.69C217.847 290.57 217.1 289.73 216.167 289.17C215.234 288.61 214.184 288.33 213.017 288.33C211.85 288.33 210.8 288.61 209.867 289.17C208.934 289.73 208.187 290.57 207.627 291.69C207.067 292.763 206.787 294.14 206.787 295.82C206.787 297.453 207.067 298.853 207.627 300.02C208.187 301.14 208.934 301.98 209.867 302.54C210.8 303.1 211.85 303.38 213.017 303.38ZM258.709 315.7C253.435 315.7 249.329 314.44 246.389 311.92C243.449 309.353 241.979 305.433 241.979 300.16V268.1H257.799V300.02C257.799 301.187 258.102 302.097 258.709 302.75C259.362 303.403 260.155 303.73 261.089 303.73C262.442 303.73 263.632 303.38 264.659 302.68L268.439 313.67C267.225 314.37 265.755 314.883 264.029 315.21C262.349 315.537 260.575 315.7 258.709 315.7ZM236.729 290.36V278.81H265.639V290.36H236.729ZM292.54 315.7C287.874 315.7 283.79 314.837 280.29 313.11C276.837 311.383 274.154 309.027 272.24 306.04C270.327 303.007 269.37 299.6 269.37 295.82C269.37 291.947 270.304 288.517 272.17 285.53C274.084 282.543 276.674 280.21 279.94 278.53C283.254 276.85 286.964 276.01 291.07 276.01C294.85 276.01 298.327 276.757 301.5 278.25C304.72 279.743 307.287 281.96 309.2 284.9C311.16 287.84 312.14 291.48 312.14 295.82C312.14 296.38 312.117 297.01 312.07 297.71C312.024 298.363 311.977 298.97 311.93 299.53H282.46V291.9H303.53L297.58 293.93C297.58 292.437 297.3 291.177 296.74 290.15C296.227 289.077 295.504 288.26 294.57 287.7C293.637 287.093 292.517 286.79 291.21 286.79C289.904 286.79 288.76 287.093 287.78 287.7C286.847 288.26 286.124 289.077 285.61 290.15C285.097 291.177 284.84 292.437 284.84 293.93V296.31C284.84 297.943 285.167 299.343 285.82 300.51C286.474 301.677 287.407 302.563 288.62 303.17C289.834 303.73 291.304 304.01 293.03 304.01C294.804 304.01 296.25 303.777 297.37 303.31C298.537 302.843 299.75 302.143 301.01 301.21L309.27 309.54C307.404 311.547 305.094 313.087 302.34 314.16C299.634 315.187 296.367 315.7 292.54 315.7Z" fill="white"/>
<path d="M75 11.4079L80.4312 153.869C80.6228 158.886 84.9424 162.741 89.9483 162.362L231.813 151.624C236.562 151.265 240.176 147.215 239.993 142.457L234.887 8.51862C234.695 3.50191 230.376 -0.352863 225.37 0.0256667L75 11.4079Z" fill="url(#paint0_linear_4_2)"/>
<path d="M75 11.4079L80.781 163.057L216.275 175.407L210.494 23.758L75 11.4079Z" fill="url(#paint1_linear_4_2)"/>
<path d="M75 11.4079L80.781 163.057L192.708 204.507L186.927 52.8593L75 11.4079Z" fill="url(#paint2_linear_4_2)"/>
<path d="M75 11.4079L80.6959 160.816C80.7498 162.244 81.4015 163.583 82.4891 164.508L154.326 225.557C160.063 230.433 168.857 226.16 168.57 218.637L163.683 90.4511C163.59 88.0302 162.487 85.759 160.641 84.1898L75 11.4079Z" fill="url(#paint3_linear_4_2)"/>
<defs>
<linearGradient id="paint0_linear_4_2" x1="74.9999" y1="81.1944" x2="240.001" y2="81.1944" gradientUnits="userSpaceOnUse">
<stop offset="0.4183" stop-color="#5D3BF2"/>
<stop offset="1" stop-color="#A1CDF3"/>
</linearGradient>
<linearGradient id="paint1_linear_4_2" x1="74.9999" y1="93.4076" x2="216.276" y2="93.4076" gradientUnits="userSpaceOnUse">
<stop stop-color="#158CFF"/>
<stop offset="0.3225" stop-color="#219BFA"/>
<stop offset="0.9361" stop-color="#3FC1EE"/>
<stop offset="1" stop-color="#43C5ED"/>
</linearGradient>
<linearGradient id="paint2_linear_4_2" x1="74.9999" y1="107.958" x2="192.708" y2="107.958" gradientUnits="userSpaceOnUse">
<stop stop-color="#0040F2"/>
<stop offset="0.2627" stop-color="#0657F6"/>
<stop offset="0.7459" stop-color="#117DFD"/>
<stop offset="1" stop-color="#158CFF"/>
</linearGradient>
<linearGradient id="paint3_linear_4_2" x1="121.789" y1="227.636" x2="121.789" y2="11.408" gradientUnits="userSpaceOnUse">
<stop stop-color="#0040F2"/>
<stop offset="0.181" stop-color="#323DF2"/>
<stop offset="0.3666" stop-color="#5D3BF2"/>
<stop offset="0.5464" stop-color="#8039F2"/>
<stop offset="0.7161" stop-color="#9838F2"/>
<stop offset="0.8717" stop-color="#A737F2"/>
<stop offset="1" stop-color="#AC37F2"/>
</linearGradient>
</defs>
</svg>
